<mxfile host="app.diagrams.net" modified="2021-09-15T14:22:28.890Z" agent="5.0 (Windows NT 10.0; Win64; x64) AppleWebKit/537.36 (KHTML, like Gecko) Chrome/93.0.4577.63 Safari/537.36" etag="isR31OebMo1xv0hRJR8Q" version="14.9.2" type="github">
  <diagram id="5Z5JzxMSsKsXI2cYnJ4Y" name="Page-1">
    <mxGraphModel dx="1422" dy="705" grid="1" gridSize="10" guides="1" tooltips="1" connect="1" arrows="1" fold="1" page="1" pageScale="1" pageWidth="827" pageHeight="1169" math="0" shadow="0">
      <root>
        <mxCell id="0" />
        <mxCell id="1" parent="0" />
        <mxCell id="QAn0JbYxKeHzxPDdwP5g-1" value="&lt;font style=&quot;font-size: 24px&quot;&gt;Page Calendrier&lt;/font&gt;" style="text;html=1;strokeColor=none;fillColor=none;align=center;verticalAlign=middle;whiteSpace=wrap;rounded=0;" vertex="1" parent="1">
          <mxGeometry x="319" y="60" width="190" height="20" as="geometry" />
        </mxCell>
        <mxCell id="QAn0JbYxKeHzxPDdwP5g-2" value="Utilisateur élève ou professeur connecté" style="shape=umlActor;verticalLabelPosition=bottom;verticalAlign=top;html=1;outlineConnect=0;" vertex="1" parent="1">
          <mxGeometry x="230" y="110" width="50" height="100" as="geometry" />
        </mxCell>
        <mxCell id="QAn0JbYxKeHzxPDdwP5g-7" style="edgeStyle=orthogonalEdgeStyle;rounded=0;orthogonalLoop=1;jettySize=auto;html=1;exitX=1;exitY=0.5;exitDx=0;exitDy=0;" edge="1" parent="1" source="QAn0JbYxKeHzxPDdwP5g-3" target="QAn0JbYxKeHzxPDdwP5g-6">
          <mxGeometry relative="1" as="geometry" />
        </mxCell>
        <mxCell id="QAn0JbYxKeHzxPDdwP5g-3" value="Je suis sur la page Calendrier.&lt;br&gt;Un planning s&#39;affiche, jour par jour et &lt;br&gt;heure par heure. Mes rendez-vous&lt;br&gt;et/ou évènements déjà prévus s&#39;affichent&lt;br&gt;&amp;nbsp;sur le planning.&lt;br&gt;Je souhaite ajouter un évènement ?" style="ellipse;whiteSpace=wrap;html=1;" vertex="1" parent="1">
          <mxGeometry x="130" y="270" width="250" height="140" as="geometry" />
        </mxCell>
        <mxCell id="QAn0JbYxKeHzxPDdwP5g-4" value="" style="endArrow=none;dashed=1;html=1;dashPattern=1 3;strokeWidth=2;entryX=0.5;entryY=0;entryDx=0;entryDy=0;" edge="1" parent="1" source="QAn0JbYxKeHzxPDdwP5g-2" target="QAn0JbYxKeHzxPDdwP5g-3">
          <mxGeometry width="50" height="50" relative="1" as="geometry">
            <mxPoint x="390" y="300" as="sourcePoint" />
            <mxPoint x="440" y="250" as="targetPoint" />
          </mxGeometry>
        </mxCell>
        <mxCell id="QAn0JbYxKeHzxPDdwP5g-6" value="&lt;span&gt;Je clique sur le créneau (date et&lt;/span&gt;&lt;br&gt;&lt;span&gt;créneau horaire correspondant à&lt;/span&gt;&lt;br&gt;&lt;span&gt;celui-ci).&lt;/span&gt;&lt;br&gt;&lt;span&gt;Une modale s&#39;ouvre, elle comporte&amp;nbsp;&lt;/span&gt;&lt;br&gt;&lt;span&gt;la date et heure choisie, un&lt;/span&gt;&lt;br&gt;&lt;span&gt;champ description, un bouton&lt;/span&gt;&lt;br&gt;&lt;span&gt;&quot;supprimer&quot;, et un bouton&amp;nbsp;&lt;/span&gt;&lt;br&gt;&lt;span&gt;&quot;valider&quot;.&lt;br&gt;Je remplis le champ description&lt;br&gt;et clique sur &quot;valider&quot; une fois&lt;br&gt;que j&#39;ai fini de remplir le champ description&lt;br&gt;&lt;/span&gt;" style="rounded=1;whiteSpace=wrap;html=1;" vertex="1" parent="1">
          <mxGeometry x="500" y="250" width="220" height="180" as="geometry" />
        </mxCell>
        <mxCell id="QAn0JbYxKeHzxPDdwP5g-8" value="Oui" style="text;html=1;align=center;verticalAlign=middle;resizable=0;points=[];autosize=1;strokeColor=none;" vertex="1" parent="1">
          <mxGeometry x="414" y="320" width="30" height="20" as="geometry" />
        </mxCell>
        <mxCell id="QAn0JbYxKeHzxPDdwP5g-9" value="" style="endArrow=none;dashed=1;html=1;dashPattern=1 3;strokeWidth=2;entryX=0.5;entryY=1;entryDx=0;entryDy=0;exitX=0.5;exitY=0;exitDx=0;exitDy=0;" edge="1" parent="1" source="QAn0JbYxKeHzxPDdwP5g-10" target="QAn0JbYxKeHzxPDdwP5g-3">
          <mxGeometry width="50" height="50" relative="1" as="geometry">
            <mxPoint x="414" y="490" as="sourcePoint" />
            <mxPoint x="440" y="440" as="targetPoint" />
          </mxGeometry>
        </mxCell>
        <mxCell id="QAn0JbYxKeHzxPDdwP5g-12" style="edgeStyle=orthogonalEdgeStyle;rounded=0;orthogonalLoop=1;jettySize=auto;html=1;entryX=0;entryY=0.5;entryDx=0;entryDy=0;" edge="1" parent="1" source="QAn0JbYxKeHzxPDdwP5g-10" target="QAn0JbYxKeHzxPDdwP5g-11">
          <mxGeometry relative="1" as="geometry" />
        </mxCell>
        <mxCell id="QAn0JbYxKeHzxPDdwP5g-10" value="Je souhaite supprimer un évènement déjà existant?" style="ellipse;whiteSpace=wrap;html=1;" vertex="1" parent="1">
          <mxGeometry x="165" y="490" width="180" height="60" as="geometry" />
        </mxCell>
        <mxCell id="QAn0JbYxKeHzxPDdwP5g-11" value="Je clique sur l&#39;évènement correspondant.&amp;nbsp;&lt;br&gt;Une modale s&#39;ouvre me permettant d&#39;accéder à la modification de celui-ci.&lt;br&gt;Je clique sur le bouton &quot;supprimer&quot;, l&#39;évènement disparaît de mon calendrier" style="rounded=1;whiteSpace=wrap;html=1;" vertex="1" parent="1">
          <mxGeometry x="500" y="455" width="161" height="130" as="geometry" />
        </mxCell>
        <mxCell id="QAn0JbYxKeHzxPDdwP5g-13" value="Oui" style="text;html=1;align=center;verticalAlign=middle;resizable=0;points=[];autosize=1;strokeColor=none;" vertex="1" parent="1">
          <mxGeometry x="414" y="490" width="30" height="20" as="geometry" />
        </mxCell>
        <mxCell id="QAn0JbYxKeHzxPDdwP5g-18" style="edgeStyle=orthogonalEdgeStyle;rounded=0;orthogonalLoop=1;jettySize=auto;html=1;entryX=0;entryY=0.5;entryDx=0;entryDy=0;" edge="1" parent="1" source="QAn0JbYxKeHzxPDdwP5g-14" target="QAn0JbYxKeHzxPDdwP5g-16">
          <mxGeometry relative="1" as="geometry" />
        </mxCell>
        <mxCell id="QAn0JbYxKeHzxPDdwP5g-14" value="Je souhaite modifier un évènement déjà existant?" style="ellipse;whiteSpace=wrap;html=1;" vertex="1" parent="1">
          <mxGeometry x="165" y="650" width="180" height="60" as="geometry" />
        </mxCell>
        <mxCell id="QAn0JbYxKeHzxPDdwP5g-15" value="" style="endArrow=none;dashed=1;html=1;dashPattern=1 3;strokeWidth=2;entryX=0.5;entryY=1;entryDx=0;entryDy=0;exitX=0.5;exitY=0;exitDx=0;exitDy=0;" edge="1" parent="1" source="QAn0JbYxKeHzxPDdwP5g-14" target="QAn0JbYxKeHzxPDdwP5g-10">
          <mxGeometry width="50" height="50" relative="1" as="geometry">
            <mxPoint x="390" y="630" as="sourcePoint" />
            <mxPoint x="440" y="580" as="targetPoint" />
          </mxGeometry>
        </mxCell>
        <mxCell id="QAn0JbYxKeHzxPDdwP5g-16" value="Je clique sur l&#39;évènement correspondant.&amp;nbsp;&lt;br&gt;Une modale s&#39;ouvre me permettant d&#39;accéder à la modification de celui-ci.&lt;br&gt;Je modifie ce que je désire dans le champ &quot;description&quot;, et clique sur le bouton &quot;valider&quot; pour enregistrer mes modifications" style="rounded=1;whiteSpace=wrap;html=1;" vertex="1" parent="1">
          <mxGeometry x="500" y="610" width="210" height="140" as="geometry" />
        </mxCell>
        <mxCell id="QAn0JbYxKeHzxPDdwP5g-19" value="Oui" style="text;html=1;align=center;verticalAlign=middle;resizable=0;points=[];autosize=1;strokeColor=none;" vertex="1" parent="1">
          <mxGeometry x="414" y="660" width="30" height="20" as="geometry" />
        </mxCell>
      </root>
    </mxGraphModel>
  </diagram>
</mxfile>
